<svg xmlns="http://www.w3.org/2000/svg" width="64" height="64" viewBox="0 0 64 64"><defs><style>.cls-1{fill:#c6d4db;}.cls-2{fill:#a4b5bf;}.cls-3{fill:#fff;}</style></defs><path class="cls-1" d="M51,26.07a14.2,14.2,0,0,0-2.09-7.53,13.43,13.43,0,0,0-12-6.54,13.15,13.15,0,0,0-5.7.93,12,12,0,0,0-10.6,11.89,11.58,11.58,0,0,0,2.1,6.86,11,11,0,0,0-5.32.7,11.13,11.13,0,0,0-8,10.65,11.45,11.45,0,0,0,11.44,11.41H51a11.15,11.15,0,0,0,0-22.3Z"/><path class="cls-2" d="M11.48,53.48H51a11.15,11.15,0,0,0,0-22.3,13.91,13.91,0,0,0-1-5,1,1,0,0,0-1.15-.75,1,1,0,0,0-.76,1.15,12.18,12.18,0,0,1,.84,4.25,9.15,9.15,0,0,1-9.15,9.15H28a1,1,0,1,0,0,2H40.73a1,1,0,1,0,0-2H28a7.15,7.15,0,0,1-7-6.23,1,1,0,0,0-1-.87,1,1,0,0,0-.87,1,9.13,9.13,0,0,0,8.71,7.21H40.73a1,1,0,1,0,0-2H21.57a9,9,0,0,1-9.13-7.92,1,1,0,0,0-1-.93,1,1,0,0,0-1,1.06A11.1,11.1,0,0,0,19.3,51.48H11.48a9.45,9.45,0,0,1,0-18.9,1,1,0,1,0,0,2,7.45,7.45,0,0,0,0,14.9Z"/><path class="cls-3" d="M25,51.5a1,1,0,0,0,1.41,0l2-2a1,1,0,1,0-1.41-1.41l-2,2A1,1,0,0,0,25,51.5Z M33.09,55.59,32,56.68a1,1,0,0,0,0,1.41,1,1,0,0,0,1.41,0l1.09-1.09a1,1,0,1,0-1.41-1.41Z M35.91,52.41a1,1,0,0,0-1.41,1.41L35.59,55a1,1,0,0,0,1.41,0,1,1,0,0,0,0-1.41Z M34.5,52.2a1,1,0,0,0-1.41,0L32,53.29a1,1,0,1,0,1.41,1.41L34.5,53.61A1,1,0,0,0,34.5,52.2Z M28.09,49.59,27,50.68a1,1,0,0,0,0,1.41,1,1,0,0,0,1.41,0L29.5,50.9a1,1,0,1,0-1.41-1.31Z M17.09,52.59,16,53.68a1,1,0,0,0,0,1.41,1,1,0,0,0,1.41,0L18.5,54a1,1,0,1,0-1.41-1.41Z M19.91,49.41a1,1,0,0,0-1.41,1.41L19.59,52a1,1,0,0,0,1.41,0,1,1,0,0,0,0-1.41Z M18.5,49.2a1,1,0,0,0-1.41,0L16,50.29a1,1,0,0,0,1.41,1.41L18.5,50.61A1,1,0,0,0,18.5,49.2Z M29.5,48.11a1,1,0,0,0,1.41-1.41L29.81,45.6a1,1,0,0,0-1.41,0,1,1,0,0,0,0,1.41Z"/></svg>