<svg xmlns="http://www.w3.org/2000/svg" width="64" height="64" viewBox="0 0 64 64"><defs><style>.cls-1{fill:#9babb4;}.cls-2{fill:#869aab;}.cls-3{fill:#fff;}.cls-4{fill:#f7e57c;}</style></defs><path class="cls-1" d="M51,26.07a14.2,14.2,0,0,0-2.09-7.53,13.43,13.43,0,0,0-12-6.54,13.15,13.15,0,0,0-5.7.93,12,12,0,0,0-10.6,11.89,11.58,11.58,0,0,0,2.1,6.86,11,11,0,0,0-5.32.7,11.13,11.13,0,0,0-8,10.65,11.45,11.45,0,0,0,11.44,11.41H51a11.15,11.15,0,0,0,0-22.3Z"/><path class="cls-2" d="M11.48,53.48H51a11.15,11.15,0,0,0,0-22.3,13.91,13.91,0,0,0-1-5,1,1,0,0,0-1.15-.75,1,1,0,0,0-.76,1.15,12.18,12.18,0,0,1,.84,4.25,9.15,9.15,0,0,1-9.15,9.15H28a1,1,0,1,0,0,2H40.73a1,1,0,1,0,0-2H28a7.15,7.15,0,0,1-7-6.23,1,1,0,0,0-1-.87,1,1,0,0,0-.87,1,9.13,9.13,0,0,0,8.71,7.21H40.73a1,1,0,1,0,0-2H21.57a9,9,0,0,1-9.13-7.92,1,1,0,0,0-1-.93,1,1,0,0,0-1,1.06A11.1,11.1,0,0,0,19.3,51.48H11.48a9.45,9.45,0,0,1,0-18.9,1,1,0,1,0,0,2,7.45,7.45,0,0,0,0,14.9Z"/><circle class="cls-3" cx="18.6" cy="58.75" r="1.5"/><circle class="cls-3" cx="26.6" cy="58.75" r="1.5"/><circle class="cls-3" cx="34.6" cy="58.75" r="1.5"/><circle class="cls-3" cx="22.6" cy="53" r="1.5"/><circle class="cls-3" cx="30.6" cy="53" r="1.5"/><circle class="cls-3" cx="38.6" cy="53" r="1.5"/><path class="cls-4" d="M35.63,41.48,29,48.1a1,1,0,0,0,.63,1.75H33.2v3.74a1,1,0,0,0,1.71.71l6.62-6.62a1,1,0,0,0-.63-1.75H37.2V42.19A1,1,0,0,0,35.63,41.48Z"/></svg>