<svg xmlns="http://www.w3.org/2000/svg" width="64" height="64" viewBox="0 0 64 64"><defs><style>.cls-1{fill:#ffca00;}.cls-2{fill:#c6d4db;}.cls-3{fill:#a4b5bf;}.cls-4{fill:#5091d7;}.cls-5{fill:#3377bc;}</style></defs><path class="cls-1" d="M30,13a10.45,10.45,0,1,0,10.45,10.45A10.46,10.46,0,0,0,30,13Zm0,18.9a8.45,8.45,0,1,1,8.45-8.45A8.46,8.46,0,0,1,30,31.9ZM14,23.45a1,1,0,1,0,1,1A1,1,0,0,0,14,23.45Zm-2.83-8.62a1,1,0,0,0-1.41,0,1,1,0,0,0,0,1.41L11.17,18a1,1,0,0,0,1.41,0,1,1,0,0,0,0-1.41ZM30,6a1,1,0,0,0,1-1V3a1,1,0,0,0-2,0V5A1,1,0,0,0,30,6ZM46,23.45a1,1,0,1,0,1,1A1,1,0,0,0,46,23.45ZM18,11.17a1,1,0,0,0-1.41,0L14.76,13a1,1,0,0,0,0,1.41,1,1,0,0,0,1.41,0l1.83-1.83A1,1,0,0,0,18,11.17ZM6,23.45H4a1,1,0,0,0,0,2H6a1,1,0,0,0,0-2Z"/><path class="cls-2" d="M49,30.29a.82.82,0,0,0-.24,0,10.36,10.36,0,0,0-19.14-5.22,1,1,0,0,0,.69.21,1,1,0,0,0,.81-.4,1,1,0,0,0-.22-1.39,8.41,8.41,0,0,1-1.39-11,8.4,8.4,0,0,1,8-3,8.21,8.21,0,0,1,1.52.17A8.25,8.25,0,0,1,44.75,25a8.17,8.17,0,0,1,8.08,8.21,8.44,8.44,0,0,1-1.92,5.2,1,1,0,1,0-1.54,1.26,10.51,10.51,0,0,0,2.37-6.46,10.17,10.17,0,0,0-10.14-10.2A10.53,10.53,0,0,0,49,30.29Z"/><path class="cls-3" d="M12.42,50H50a9.23,9.23,0,1,0-8.54-12.89,1,1,0,0,0-.62,0,1,1,0,0,0-.62,1.29,1,1,0,0,0,1.27.62,7.24,7.24,0,1,1-1.25,14H29a1,1,0,1,0,0,2H40.24a1,1,0,1,0,0-2H29a5.1,5.1,0,0,1-5-4.48,1,1,0,0,0-1-.87,1,1,0,0,0-.87,1A7.09,7.09,0,0,0,29,52H40.24a1,1,0,1,0,0-2H22.51A7.09,7.09,0,0,1,16.29,42a1,1,0,1,0-1.84.77,9.15,9.15,0,0,0,7.18,8.22H12.42a7.51,7.51,0,0,1-7.29-6,1,1,0,1,0-1.94.49A9.51,9.51,0,0,0,12.42,50Z"/><path class="cls-4" d="M26.43,53.48a1,1,0,0,0-1-1H23.57a1,1,0,0,0,0,2h1.86A1,1,0,0,0,26.43,53.48Zm-7.79,0a1,1,0,0,0-1-1H15.79a1,1,0,1,0,0,2h1.85A1,1,0,0,0,18.64,53.48Z"/><path class="cls-5" d="M26.43,53.48a1,1,0,0,0-1-1H23.57a1,1,0,1,0,0,2h1.86A1,1,0,0,0,26.43,53.48Z"/></svg>