<svg xmlns="http://www.w3.org/2000/svg" width="64" height="64" viewBox="0 0 64 64"><defs><style>.cls-1{fill:#c6d4db;}.cls-2{fill:#a4b5bf;}</style></defs><path class="cls-1" d="M51,26.07a14.2,14.2,0,0,0-2.09-7.53,13.43,13.43,0,0,0-12-6.54,13.15,13.15,0,0,0-5.7.93,12,12,0,0,0-10.6,11.89,11.58,11.58,0,0,0,2.1,6.86,11,11,0,0,0-5.32.7,11.13,11.13,0,0,0-8,10.65,11.45,11.45,0,0,0,11.44,11.41H51a11.15,11.15,0,0,0,0-22.3Z"/><path class="cls-2" d="M56.88,43.4H7.12a1,1,0,0,0,0,2H56.88a1,1,0,0,0,0-2Z M56.88,49H7.12a1,1,0,0,0,0,2H56.88a1,1,0,0,0,0-2Z"/></svg>